<?xml version="1.0" encoding="utf-8"?>
<!-- Generator: Adobe Illustrator 16.0.0, SVG Export Plug-In . SVG Version: 6.00 Build 0)  -->
<!DOCTYPE svg PUBLIC "-//W3C//DTD SVG 1.1//EN" "http://www.w3.org/Graphics/SVG/1.1/DTD/svg11.dtd">
<svg version="1.1" id="Layer_1" xmlns="http://www.w3.org/2000/svg" xmlns:xlink="http://www.w3.org/1999/xlink" x="0px" y="0px"
	 width="148px" height="310px" viewBox="0 0 148 310" enable-background="new 0 0 148 310" xml:space="preserve">
<path fill="#F6F9FC" stroke="#F6F9FC" stroke-miterlimit="10" d="M50.909,123.515c2.958,7.84,10.175,13.893,18.425,15.391
	c0.005-0.001,0.01-0.002,0.014-0.003c6.887,1.65,14.348-0.435,19.92-4.667c6.03-4.676,9.797-12.274,9.521-19.933
	c0.146-6.617-2.891-13.108-7.619-17.659c-5.427-5.174-13.473-8.013-20.893-6.451c-7.762,0.991-14.746,6.179-18.299,13.108
	C48.771,109.483,48.368,117.029,50.909,123.515z M72.448,138.168c7.101-2.216,13.086-7.846,15.647-14.849
	c2.524-6.889,2.051-14.951-1.812-21.265c-2.651-4.704-7.004-8.078-11.866-10.286c4.862,2.207,9.22,5.581,11.875,10.283
	c3.864,6.315,4.336,14.375,1.813,21.266C85.541,130.323,79.555,135.956,72.448,138.168z"/>
<rect x="53.146" y="211.783" fill="#0652DD" stroke="#0652DD" stroke-miterlimit="10" width="13.82" height="97.57"/>
<rect x="66.967" y="211.827" fill="#ED4C67" stroke="#ED4C67" stroke-miterlimit="10" width="13.822" height="97.579"/>
<rect x="81.034" y="211.809" fill="#FFC312" stroke="#FFC312" stroke-miterlimit="10" width="13.823" height="97.547"/>
<path fill="#191C20" stroke="#191C20" stroke-miterlimit="10" d="M34.576,186.916c-6.348,0.223-12.699,1.137-18.691,3.285
	c-1.414,0.473-2.797,1.109-4.281,1.332c-1.104,0.25-2.246-0.418-2.793-1.375c-5.977-10.225-8.58-22.217-8.227-33.996
	c0.234-11.429,3.52-22.838,9.758-32.444c3.828-5.993,8.928-11.259,15.156-14.759C23.76,135.186,26.393,161.874,34.576,186.916z"/>
<path fill="#191C20" stroke="#191C20" stroke-miterlimit="10" d="M113.525,186.912c6.191,0.254,12.424,1.078,18.269,3.209
	c2.251,0.703,5.376,2.807,7.272,0.377c4.973-8.172,7.498-17.645,8.312-27.128c0.13-2.737,0.025-5.472,0.068-8.208
	c-0.37-12.628-4.648-25.172-12.322-35.238c-1.654-2.157-3.686-3.981-5.578-5.925c-2.029-2.102-4.559-3.609-7.021-5.136
	c0.137,1.948,0.343,3.892,0.395,5.846C123.822,139.054,121.13,163.7,113.525,186.912z"/>
<g>
	<g>
		<path fill="#191C20" stroke="#191C20" stroke-miterlimit="10" d="M102.18,99.144c3.811,6.894,4.944,15.219,3.098,22.873
			c-1.769,7.599-6.442,14.46-12.84,18.916c-5.354,3.774-11.887,5.826-18.435,5.818c-6.546,0.008-13.083-2.044-18.442-5.818
			c-6.39-4.448-11.057-11.298-12.828-18.888c-1.731-7.19-0.871-14.971,2.414-21.599c3.355-6.894,9.281-12.496,16.355-15.456
			c5.803-2.456,12.323-3.145,18.512-1.962C89.316,84.743,97.67,90.831,102.18,99.144z M70.902,94.261
			c-6.469,0.826-12.293,5.151-15.25,10.924c-2.674,5.153-3.01,11.441-0.896,16.844c2.468,6.534,8.484,11.578,15.363,12.825
			c5.739,1.379,11.961-0.36,16.604-3.888c5.025-3.899,8.164-10.229,7.934-16.611c0.124-5.514-2.405-10.924-6.346-14.716
			C83.791,95.327,77.084,92.961,70.902,94.261z"/>
	</g>
</g>
<g>
	<g>
		<g>
			<path fill="#FFC312" d="M44.807,170.546l-0.197,0.64c-0.262,0.84-0.068,1.738,0.524,2.396c0.306,0.344,0.691,0.588,1.111,0.718
				c0.386,0.123,0.803,0.142,1.218,0.062c0.529-0.104,1.068,0.062,1.444,0.447c0.62,0.631,1.501,0.885,2.36,0.678
				c0.854-0.201,1.523-0.836,1.793-1.68l0.186-0.598c0.729-2.343-0.564-4.844-2.885-5.574c-1.131-0.349-2.33-0.248-3.381,0.303
				C45.932,168.486,45.16,169.412,44.807,170.546z"/>
		</g>
	</g>
	<g>
		<g>
			<path fill="#FFC312" d="M54.128,170.121c0.181,0.531,0.601,0.916,1.099,1.07c0.33,0.097,0.691,0.1,1.039-0.02l0.281-0.095
				c0.881-0.304,1.355-1.265,1.055-2.144l0,0c-0.297-0.881-1.256-1.355-2.138-1.057l-0.28,0.096
				C54.305,168.271,53.828,169.23,54.128,170.121z"/>
		</g>
	</g>
	<g>
		<g>
			<path fill="#FFC312" d="M43.264,166.99l0.184,0.234c0.221,0.297,0.527,0.498,0.849,0.602c0.499,0.154,1.067,0.076,1.517-0.26
				c0.744-0.553,0.898-1.613,0.342-2.357l-0.176-0.236c-0.557-0.746-1.615-0.898-2.361-0.344
				C42.874,165.186,42.719,166.244,43.264,166.99z"/>
		</g>
	</g>
	<g>
		<g>
			<path fill="#FFC312" d="M51.451,166.374c0.074,0.444,0.32,0.832,0.688,1.091v0.001c0.154,0.101,0.313,0.177,0.473,0.229
				c0.684,0.215,1.445-0.028,1.883-0.637l0.449-0.646c0.265-0.367,0.363-0.813,0.285-1.261c-0.076-0.446-0.321-0.829-0.688-1.092
				c-0.369-0.265-0.814-0.358-1.26-0.285c-0.446,0.08-0.832,0.324-1.092,0.688l-0.455,0.646
				C51.475,165.479,51.374,165.926,51.451,166.374z"/>
		</g>
	</g>
	<g>
		<g>
			<path fill="#FFC312" d="M47.241,164.039l0.01,0.787c0.007,0.749,0.505,1.379,1.188,1.59c0.166,0.051,0.338,0.078,0.521,0.074
				c0.453-0.006,0.875-0.186,1.188-0.508c0.314-0.324,0.484-0.75,0.479-1.199l-0.011-0.789c-0.011-0.93-0.779-1.676-1.708-1.664
				C47.979,162.342,47.23,163.109,47.241,164.039z"/>
		</g>
	</g>
</g>
<path fill="#191C20" stroke="#191C20" stroke-miterlimit="10" d="M55.854,58.125c0.006,2.91,0,5.822-0.011,8.736
	c-0.008,1.243,0.101,2.699,1.156,3.533c1.444,1.036,3.315,0.692,4.983,0.74c7.01,0.01,14.017-0.054,21.031,0.034
	c2.125-0.01,4.258,0.09,6.383-0.034c1.611-0.116,2.894-1.646,2.812-3.25c0.04-3.25-0.009-6.504,0.013-9.754
	c3.823-0.038,7.653-0.079,11.479,0.024c-4.158-11.538-9.293-22.84-15.981-33.14c6.688,10.301,11.824,21.603,15.982,33.138
	c2.972,0.067,5.943,0.015,8.914,0.033c-2.463-7.348-5.492-14.5-8.961-21.426c-3.967-7.545-8.617-14.727-13.869-21.441
	c-3.68-4.383-7.588-8.581-11.889-12.369c-1.162-0.941-2.233-2.462-3.897-2.349c-1.911-0.048-3.11,1.748-4.433,2.86
	c0.002,0.001,0.002,0.002,0.002,0.002c-4.012,3.638-7.75,7.564-11.141,11.794c-10.203,12.72-17.732,27.426-22.93,42.848
	C42.283,58.104,49.062,58.072,55.854,58.125z M87.63,24.881c-0.078-0.121-0.161-0.239-0.239-0.359
	C87.469,24.643,87.552,24.761,87.63,24.881z M69.585,3.479c3.228,3.315,6.664,6.45,9.625,10.007
	C76.245,9.929,72.807,6.793,69.585,3.479z"/>
<g>
	<path fill="#191C20" stroke="#191C20" stroke-miterlimit="10" d="M87.201,209.708c-0.378,0.84-1.137,1.44-1.762,2.104
		c0.963,0.006,1.924,0,2.884,0.006l0.586,0.014c1.794-0.012,3.59-0.005,5.39,0.021c1.016,0,2.126-0.094,2.876-0.862
		c1.005-0.854,1.052-2.271,1.07-3.479c-0.019-4.25-0.002-8.486-0.019-12.729c-3.602-0.008-7.197,0-10.795,0
		c0.021,3.914-0.005,7.832,0.033,11.75C87.441,207.586,87.499,208.68,87.201,209.708z"/>
	<path fill="#191C20" stroke="#191C20" stroke-miterlimit="10" d="M49.955,208.975c0.136,1.914,2.104,2.973,3.865,2.824
		c1.957-0.011,3.914-0.023,5.875-0.021c3.186,0,6.359,0,9.543,0c3.178,0,6.359,0,9.537,0c2.223,0,4.447-0.016,6.662,0.027
		c0.625-0.66,1.383-1.26,1.763-2.1c0.296-1.036,0.239-2.125,0.264-3.182c-0.04-3.908-0.015-7.826-0.034-11.74
		c-12.519,0-25.035,0-37.549,0C49.932,199.508,49.76,204.252,49.955,208.975z"/>
</g>
<path fill="#2D2E31" stroke="#2D2E31" stroke-miterlimit="10" d="M34.586,186.919c0.625,1.821,1.186,3.672,1.832,5.489
	c0.396,1.273,1.559,2.479,2.979,2.365c3.496,0.026,6.984-0.014,10.48,0.008c12.521,0,25.033,0,37.548,0
	c3.601,0,7.196-0.008,10.796,0c0.719,0.004,1.436,0.017,2.148,0.031c0.002-0.002,0.005-0.004,0.007-0.004
	c2.726,0.061,5.451,0.103,8.169,0.082c1.484,0.104,2.717-1.117,3.13-2.449c0.644-1.836,1.208-3.693,1.849-5.527
	c7.604-23.216,10.297-47.863,9.395-72.208c-0.053-1.949-0.259-3.895-0.395-5.841c-1.027-17.229-4.319-34.345-9.916-50.679
	c-2.969-0.018-5.941,0.034-8.914-0.033c6.307,19.046,9.826,39.042,10.271,59.105c0.328,4.147,0.381,8.317,0.042,12.465
	c-0.315,10.462-1.214,20.929-3.032,31.242c-1.998,10.58-4.615,21.059-8.146,31.23c-0.154,0.629-0.488,1.15-0.925,1.58
	c0.436-0.43,0.768-0.95,0.922-1.576c3.531-10.172,6.148-20.651,8.145-31.231c1.819-10.313,2.717-20.78,3.033-31.243
	c0.336-4.147,0.284-8.317-0.042-12.465C113.52,97.196,110,77.199,103.691,58.154c-3.825-0.103-7.655-0.062-11.479-0.024
	c-0.021,3.25,0.028,6.504-0.012,9.754c0.082,1.604-1.2,3.134-2.812,3.25c-2.125,0.124-4.258,0.024-6.384,0.034
	c-7.01-0.088-14.017-0.024-21.026-0.034c-1.668-0.048-3.539,0.296-4.985-0.74c-1.054-0.834-1.164-2.29-1.156-3.533
	c0.009-2.914,0.015-5.826,0.009-8.736c-6.775-0.052-13.56-0.021-20.345-0.021c-5.64,16.398-8.875,33.568-9.996,50.856
	C23.77,135.185,26.398,161.875,34.586,186.919z M45.145,100.447c3.354-6.893,9.279-12.494,16.354-15.456
	c5.803-2.458,12.325-3.146,18.511-1.963c9.304,1.716,17.658,7.804,22.166,16.118c3.812,6.892,4.944,15.216,3.099,22.872
	c-1.769,7.599-6.441,14.461-12.84,18.916c-5.354,3.774-11.885,5.826-18.435,5.818c-6.543,0.008-13.083-2.044-18.438-5.818
	c-6.391-4.449-11.059-11.298-12.828-18.888C41,114.858,41.861,107.077,45.145,100.447z"/>
</svg>
